<svg xmlns="http://www.w3.org/2000/svg" id="canvas" viewBox="278.530 329.752 1203.153 182.012"><path d="M 330.43,364.28 C 328.77 364.85, 327.72 365.83, 326.47 368.48 C 325.21 371.14, 325.43 373.16, 324.16 377.57 C 322.90 381.97, 322.09 384.90, 320.14 390.50 C 318.18 396.11, 316.94 399.29, 314.40 405.58 C 311.86 411.87, 310.30 415.33, 307.43 421.95 C 304.55 428.57, 302.89 432.12, 300.02 438.67 C 297.15 445.22, 295.61 448.63, 293.08 454.72 C 290.55 460.81, 289.31 463.80, 287.38 469.12 C 285.44 474.44, 284.58 476.86, 283.41 481.31 C 282.24 485.75, 281.52 487.65, 281.53 491.36 C 281.54 495.06, 281.91 496.88, 283.46 499.83 C 285.01 502.78, 286.40 504.35, 289.28 506.12 C 292.17 507.89, 294.12 508.34, 297.89 508.67 C 301.65 509.00, 303.71 508.41, 308.11 507.75 C 312.50 507.09, 314.93 506.49, 319.85 505.35 C 324.76 504.21, 327.47 503.43, 332.69 502.06 C 337.91 500.69, 340.77 499.87, 345.95 498.51 C 351.13 497.15, 353.81 496.41, 358.58 495.26 C 363.35 494.11, 365.68 493.53, 369.79 492.75 C 373.91 491.97, 376.17 492.01, 379.17 491.35 C 382.17 490.69, 383.13 490.30, 384.80 489.45 C 386.47 488.59, 386.80 487.92, 387.52 487.08 C 388.24 486.24, 388.36 486.05, 388.41 485.25 C 388.47 484.46, 388.24 483.75, 387.78 483.11 C 387.32 482.46, 387.12 482.39, 386.11 482.04 C 385.11 481.68, 384.60 481.29, 382.75 481.32 C 380.91 481.35, 379.87 481.38, 376.90 482.19 C 373.93 483.01, 371.90 484.09, 367.89 485.41 C 363.88 486.73, 361.58 487.43, 356.86 488.80 C 352.15 490.17, 349.46 490.90, 344.31 492.25 C 339.16 493.60, 336.28 494.39, 331.11 495.55 C 325.94 496.71, 323.21 497.34, 318.45 498.06 C 313.68 498.78, 311.20 499.02, 307.28 499.15 C 303.36 499.29, 301.54 499.03, 298.84 498.73 C 296.14 498.44, 295.35 498.28, 293.77 497.68 C 292.18 497.07, 291.73 497.01, 290.92 495.70 C 290.10 494.38, 289.89 493.69, 289.69 491.09 C 289.49 488.48, 289.32 486.70, 289.92 482.66 C 290.51 478.62, 291.12 476.09, 292.68 470.88 C 294.24 465.66, 295.38 462.64, 297.72 456.58 C 300.07 450.52, 301.57 447.11, 304.40 440.58 C 307.24 434.05, 308.90 430.50, 311.89 423.93 C 314.87 417.36, 316.49 413.92, 319.35 407.72 C 322.21 401.52, 323.69 398.40, 326.18 392.93 C 328.68 387.46, 329.93 384.63, 331.82 380.35 C 333.72 376.07, 335.04 374.46, 335.64 371.52 C 336.24 368.58, 335.86 367.10, 334.82 365.65 C 333.78 364.20, 332.10 363.72, 330.43 364.28" style="stroke: black; fill: black;"/><path d="M 478.60,429.35 C 479.10 427.70, 478.83 426.52, 477.72 424.80 C 476.61 423.08, 475.56 421.98, 473.04 420.75 C 470.53 419.52, 468.58 418.66, 465.15 418.63 C 461.72 418.60, 459.84 419.38, 455.89 420.60 C 451.94 421.83, 449.84 422.62, 445.40 424.78 C 440.95 426.93, 438.44 428.28, 433.67 431.36 C 428.89 434.44, 426.21 436.40, 421.52 440.17 C 416.83 443.94, 414.27 446.20, 410.22 450.23 C 406.17 454.25, 404.20 456.42, 401.28 460.30 C 398.36 464.19, 396.85 465.97, 395.62 469.66 C 394.38 473.34, 394.22 475.46, 395.11 478.73 C 396.00 482.00, 397.29 483.96, 400.06 486.02 C 402.83 488.07, 405.03 488.76, 408.94 489.00 C 412.86 489.24, 415.16 488.51, 419.65 487.20 C 424.14 485.90, 426.59 484.83, 431.39 482.47 C 436.19 480.11, 438.78 478.58, 443.66 475.41 C 448.54 472.23, 451.15 470.30, 455.80 466.61 C 460.44 462.93, 462.81 460.72, 466.88 456.97 C 470.95 453.23, 473.04 451.18, 476.15 447.88 C 479.25 444.59, 481.51 443.09, 482.40 440.48 C 483.28 437.87, 482.20 435.92, 480.55 434.84 C 478.91 433.77, 476.50 433.52, 474.17 435.08 C 471.85 436.65, 471.05 438.95, 468.94 442.66 C 466.82 446.37, 465.62 449.18, 463.58 453.63 C 461.55 458.09, 460.38 460.65, 458.76 464.92 C 457.15 469.20, 456.14 471.22, 455.49 475.00 C 454.84 478.79, 454.55 481.04, 455.52 483.84 C 456.49 486.63, 458.61 488.34, 460.34 488.97 C 462.06 489.59, 463.46 488.31, 464.14 486.96 C 464.82 485.60, 463.74 484.28, 463.74 482.20 C 463.73 480.12, 463.59 479.41, 464.13 476.54 C 464.67 473.68, 464.95 471.64, 466.42 467.86 C 467.89 464.08, 469.20 461.64, 471.47 457.66 C 473.74 453.68, 475.63 451.35, 477.77 447.96 C 479.91 444.57, 481.65 443.20, 482.18 440.69 C 482.70 438.19, 481.76 436.44, 480.42 435.43 C 479.07 434.42, 477.46 434.13, 475.47 435.65 C 473.48 437.17, 473.05 439.66, 470.45 443.02 C 467.86 446.38, 466.18 448.68, 462.50 452.46 C 458.82 456.23, 456.48 458.36, 452.04 461.88 C 447.60 465.39, 445.02 467.22, 440.30 470.03 C 435.59 472.84, 433.00 474.15, 428.48 475.93 C 423.97 477.70, 421.52 478.29, 417.72 478.92 C 413.91 479.55, 412.06 479.19, 409.48 479.07 C 406.89 478.96, 406.11 478.84, 404.79 478.36 C 403.46 477.89, 403.13 477.93, 402.84 476.71 C 402.55 475.48, 402.52 474.72, 403.34 472.23 C 404.16 469.74, 404.67 467.79, 406.94 464.26 C 409.21 460.74, 411.00 458.46, 414.68 454.61 C 418.37 450.76, 420.88 448.53, 425.37 445.03 C 429.87 441.53, 432.55 439.72, 437.15 437.11 C 441.76 434.51, 444.27 433.42, 448.40 432.01 C 452.53 430.61, 454.67 430.29, 457.81 430.09 C 460.95 429.88, 462.05 430.54, 464.11 430.98 C 466.17 431.41, 466.67 431.78, 468.13 432.25 C 469.59 432.71, 469.99 433.14, 471.41 433.30 C 472.83 433.46, 473.79 433.83, 475.23 433.04 C 476.67 432.25, 478.10 431.00, 478.60 429.35" style="stroke: black; fill: black;"/><path d="M 690.12,359.69 C 688.49 360.16, 687.51 360.82, 686.31 363.16 C 685.10 365.50, 685.25 367.33, 684.09 371.39 C 682.93 375.44, 682.32 378.20, 680.51 383.44 C 678.69 388.67, 677.54 391.77, 675.03 397.57 C 672.52 403.36, 670.92 406.54, 667.96 412.42 C 664.99 418.30, 663.24 421.38, 660.21 426.94 C 657.18 432.51, 655.61 435.40, 652.81 440.25 C 650.00 445.10, 648.61 447.44, 646.19 451.19 C 643.77 454.93, 642.21 456.34, 640.72 458.98 C 639.22 461.62, 638.99 462.69, 638.73 464.39 C 638.48 466.10, 639.06 466.68, 639.43 467.50 C 639.81 468.32, 640.22 468.24, 640.60 468.49 C 640.98 468.74, 640.89 468.63, 641.32 468.74 C 641.74 468.86, 641.88 469.24, 642.73 469.05 C 643.58 468.86, 644.38 468.97, 645.56 467.79 C 646.74 466.62, 647.29 465.83, 648.61 463.17 C 649.93 460.51, 650.32 458.51, 652.17 454.47 C 654.03 450.44, 655.33 448.00, 657.88 443.00 C 660.42 438.00, 661.93 435.08, 664.90 429.45 C 667.86 423.83, 669.61 420.74, 672.70 414.86 C 675.78 408.97, 677.45 405.78, 680.32 400.02 C 683.18 394.27, 684.59 391.22, 687.01 386.10 C 689.43 380.98, 690.64 378.41, 692.42 374.44 C 694.20 370.46, 695.53 368.94, 695.93 366.22 C 696.33 363.49, 695.60 362.13, 694.44 360.82 C 693.27 359.52, 691.75 359.23, 690.12 359.69" style="stroke: black; fill: black;"/><path d="M 674.46,356.23 C 676.08 356.56, 676.95 356.16, 678.93 355.03 C 680.92 353.90, 681.53 352.54, 684.38 350.56 C 687.24 348.58, 689.08 346.98, 693.19 345.13 C 697.31 343.27, 700.05 342.41, 704.97 341.29 C 709.89 340.17, 712.81 339.79, 717.80 339.54 C 722.78 339.29, 725.55 339.37, 729.91 340.04 C 734.26 340.72, 736.48 341.50, 739.57 342.92 C 742.66 344.34, 743.84 345.44, 745.38 347.14 C 746.92 348.83, 747.15 349.30, 747.26 351.38 C 747.38 353.45, 747.41 354.55, 745.94 357.52 C 744.47 360.50, 743.22 362.58, 739.93 366.27 C 736.63 369.96, 734.17 372.20, 729.45 375.99 C 724.74 379.78, 721.63 381.86, 716.34 385.23 C 711.06 388.60, 707.92 390.25, 703.01 392.83 C 698.11 395.41, 695.37 396.16, 691.80 398.13 C 688.23 400.09, 686.54 400.56, 685.16 402.67 C 683.78 404.78, 683.96 406.44, 684.89 408.66 C 685.81 410.89, 686.96 412.74, 689.79 413.80 C 692.62 414.86, 694.80 413.89, 699.03 413.97 C 703.26 414.04, 706.01 413.76, 710.93 414.16 C 715.84 414.56, 718.78 414.88, 723.60 415.96 C 728.43 417.05, 731.08 417.82, 735.05 419.58 C 739.02 421.34, 740.93 422.60, 743.45 424.76 C 745.97 426.92, 746.69 428.12, 747.66 430.38 C 748.63 432.65, 748.73 433.50, 748.31 436.08 C 747.90 438.66, 747.51 440.16, 745.58 443.28 C 743.66 446.40, 742.24 448.31, 738.68 451.66 C 735.12 455.02, 732.74 456.90, 727.79 460.06 C 722.85 463.22, 719.82 464.85, 713.95 467.47 C 708.08 470.08, 704.68 471.26, 698.46 473.11 C 692.24 474.97, 688.82 475.72, 682.85 476.74 C 676.88 477.77, 673.73 478.09, 668.62 478.23 C 663.50 478.37, 660.94 478.14, 657.28 477.44 C 653.62 476.75, 652.29 475.70, 650.31 474.75 C 648.33 473.79, 648.06 473.49, 647.38 472.67 C 646.69 471.84, 647.21 471.57, 646.89 470.63 C 646.57 469.68, 646.85 468.67, 645.79 467.95 C 644.73 467.24, 642.93 466.45, 641.59 467.05 C 640.24 467.64, 639.29 468.87, 639.08 470.92 C 638.87 472.97, 639.06 474.91, 640.56 477.29 C 642.05 479.68, 643.37 481.42, 646.55 482.86 C 649.73 484.29, 651.97 484.20, 656.45 484.47 C 660.94 484.73, 663.50 484.66, 668.97 484.17 C 674.44 483.68, 677.63 483.23, 683.82 482.02 C 690.02 480.80, 693.49 480.01, 699.94 478.10 C 706.40 476.18, 709.90 475.01, 716.09 472.42 C 722.27 469.83, 725.45 468.27, 730.87 465.14 C 736.29 462.01, 738.95 460.29, 743.18 456.77 C 747.42 453.25, 749.40 451.42, 752.07 447.53 C 754.73 443.65, 755.89 441.44, 756.51 437.35 C 757.12 433.26, 756.78 430.79, 755.14 427.10 C 753.50 423.42, 751.75 421.72, 748.30 418.92 C 744.84 416.12, 742.47 415.06, 737.86 413.11 C 733.26 411.15, 730.44 410.48, 725.28 409.13 C 720.11 407.77, 717.10 407.32, 712.03 406.32 C 706.96 405.31, 704.10 404.80, 699.93 404.10 C 695.76 403.41, 693.71 402.47, 691.20 402.85 C 688.69 403.22, 687.77 404.98, 687.38 405.98 C 686.99 406.98, 687.61 408.10, 689.23 407.84 C 690.86 407.58, 692.13 406.62, 695.49 404.68 C 698.85 402.74, 701.24 401.07, 706.03 398.15 C 710.82 395.23, 714.01 393.55, 719.44 390.08 C 724.87 386.61, 728.08 384.61, 733.18 380.81 C 738.28 377.00, 740.98 374.97, 744.94 371.05 C 748.90 367.12, 750.81 365.21, 752.98 361.17 C 755.15 357.13, 756.07 354.75, 755.80 350.82 C 755.52 346.90, 754.25 344.53, 751.60 341.55 C 748.95 338.57, 746.69 337.60, 742.54 335.93 C 738.39 334.27, 735.85 333.84, 730.83 333.23 C 725.82 332.63, 722.93 332.68, 717.48 332.92 C 712.04 333.17, 709.05 333.53, 703.62 334.46 C 698.20 335.38, 695.21 336.01, 690.34 337.54 C 685.46 339.08, 682.93 340.15, 679.26 342.13 C 675.59 344.12, 673.65 345.23, 671.97 347.48 C 670.29 349.73, 670.35 351.63, 670.85 353.38 C 671.34 355.13, 672.85 355.90, 674.46 356.23" style="stroke: black; fill: black;"/><path d="M 792.00,423.85 C 790.41 424.09, 789.69 424.59, 788.33 426.27 C 786.97 427.94, 786.54 429.19, 785.18 432.22 C 783.81 435.25, 783.25 437.60, 781.50 441.40 C 779.75 445.21, 778.59 447.51, 776.42 451.25 C 774.26 454.98, 772.79 457.00, 770.68 460.09 C 768.58 463.18, 766.79 464.36, 765.92 466.69 C 765.04 469.03, 765.40 470.38, 766.30 471.77 C 767.20 473.15, 768.53 473.77, 770.39 473.62 C 772.25 473.47, 774.09 473.14, 775.60 471.02 C 777.11 468.90, 776.62 466.61, 777.94 463.03 C 779.26 459.45, 779.98 457.08, 782.22 453.11 C 784.46 449.15, 786.04 446.96, 789.14 443.19 C 792.24 439.42, 794.17 437.46, 797.72 434.27 C 801.28 431.09, 803.30 429.61, 806.92 427.28 C 810.53 424.96, 812.41 424.02, 815.77 422.66 C 819.14 421.29, 820.76 420.91, 823.73 420.46 C 826.71 420.01, 828.02 420.13, 830.65 420.39 C 833.28 420.65, 834.56 421.28, 836.87 421.76 C 839.18 422.23, 840.42 422.45, 842.19 422.78 C 843.97 423.11, 844.52 423.28, 845.76 423.42 C 846.99 423.57, 847.42 423.66, 848.36 423.49 C 849.30 423.33, 849.68 423.30, 850.45 422.60 C 851.21 421.90, 851.93 421.03, 852.20 419.99 C 852.46 418.95, 852.33 418.42, 851.75 417.41 C 851.18 416.40, 850.62 415.87, 849.31 414.94 C 848.01 414.02, 847.33 413.64, 845.24 412.80 C 843.15 411.95, 841.78 411.19, 838.87 410.72 C 835.95 410.25, 834.06 410.20, 830.65 410.45 C 827.25 410.71, 825.45 410.98, 821.83 412.00 C 818.21 413.03, 816.35 413.73, 812.57 415.60 C 808.80 417.47, 806.83 418.66, 802.94 421.37 C 799.06 424.08, 796.98 425.72, 793.14 429.16 C 789.31 432.59, 787.31 434.66, 783.78 438.54 C 780.25 442.42, 778.57 444.68, 775.49 448.56 C 772.41 452.43, 770.81 454.51, 768.39 457.94 C 765.98 461.37, 764.07 462.89, 763.43 465.70 C 762.78 468.50, 763.90 470.23, 765.17 471.98 C 766.43 473.72, 767.83 474.38, 769.76 474.42 C 771.68 474.46, 773.06 474.09, 774.80 472.18 C 776.55 470.27, 776.69 468.16, 778.49 464.85 C 780.30 461.54, 781.57 459.40, 783.84 455.61 C 786.11 451.82, 787.54 449.61, 789.84 445.91 C 792.15 442.20, 793.76 440.28, 795.36 437.08 C 796.97 433.88, 797.69 432.30, 797.87 429.90 C 798.06 427.50, 797.46 426.30, 796.29 425.09 C 795.11 423.88, 793.59 423.62, 792.00 423.85" style="stroke: black; fill: black;"/><path d="M 930.09,422.55 C 930.35 420.80, 929.89 419.45, 928.37 417.72 C 926.85 415.99, 925.46 414.80, 922.51 413.91 C 919.55 413.02, 917.36 412.84, 913.58 413.26 C 909.80 413.67, 907.81 414.48, 903.60 415.98 C 899.38 417.48, 897.07 418.46, 892.50 420.75 C 887.94 423.05, 885.37 424.46, 880.78 427.46 C 876.20 430.46, 873.69 432.32, 869.57 435.75 C 865.46 439.18, 863.38 441.11, 860.21 444.62 C 857.05 448.13, 855.39 449.76, 853.75 453.30 C 852.10 456.84, 851.60 458.93, 851.99 462.31 C 852.38 465.68, 853.37 467.71, 855.71 470.19 C 858.05 472.67, 860.01 473.89, 863.70 474.69 C 867.39 475.48, 869.76 474.96, 874.15 474.17 C 878.55 473.38, 880.91 472.54, 885.68 470.72 C 890.46 468.91, 893.07 467.71, 898.03 465.11 C 903.00 462.51, 905.73 460.92, 910.50 457.73 C 915.26 454.54, 917.66 452.59, 921.87 449.17 C 926.08 445.74, 928.12 443.80, 931.54 440.61 C 934.97 437.42, 937.21 436.12, 939.00 433.22 C 940.78 430.31, 941.15 428.24, 940.46 426.07 C 939.76 423.90, 937.94 422.54, 935.54 422.36 C 933.14 422.18, 930.95 422.79, 928.46 425.17 C 925.98 427.55, 925.27 430.24, 923.13 434.24 C 920.99 438.24, 919.78 440.89, 917.77 445.17 C 915.76 449.45, 914.64 451.70, 913.09 455.64 C 911.54 459.57, 910.49 461.37, 910.03 464.85 C 909.58 468.33, 909.83 470.07, 910.82 473.03 C 911.81 476.00, 912.80 477.59, 915.00 479.69 C 917.20 481.79, 919.10 482.77, 921.83 483.54 C 924.56 484.31, 926.41 484.29, 928.64 483.52 C 930.87 482.75, 932.27 481.43, 932.98 479.69 C 933.70 477.96, 933.19 476.32, 932.22 474.86 C 931.25 473.39, 929.78 472.94, 928.13 472.35 C 926.48 471.76, 925.50 471.91, 923.98 471.90 C 922.46 471.88, 921.50 472.51, 920.53 472.26 C 919.57 472.00, 919.37 471.83, 919.16 470.62 C 918.94 469.41, 919.07 468.60, 919.45 466.19 C 919.83 463.79, 919.88 462.03, 921.07 458.62 C 922.27 455.20, 923.28 452.90, 925.43 449.12 C 927.57 445.33, 929.35 443.03, 931.81 439.68 C 934.28 436.32, 936.39 434.94, 937.75 432.34 C 939.11 429.75, 939.05 428.26, 938.61 426.69 C 938.17 425.13, 936.99 424.29, 935.53 424.51 C 934.08 424.73, 933.19 425.58, 931.35 427.81 C 929.50 430.04, 929.02 432.35, 926.30 435.64 C 923.58 438.93, 921.59 440.89, 917.74 444.26 C 913.89 447.64, 911.56 449.52, 907.03 452.50 C 902.49 455.47, 899.83 456.94, 895.08 459.15 C 890.34 461.37, 887.72 462.33, 883.31 463.56 C 878.91 464.78, 876.60 465.09, 873.05 465.28 C 869.51 465.47, 867.88 464.84, 865.58 464.52 C 863.29 464.21, 862.64 464.30, 861.60 463.70 C 860.55 463.11, 860.41 462.94, 860.38 461.56 C 860.34 460.18, 860.35 459.25, 861.43 456.81 C 862.51 454.37, 863.29 452.53, 865.80 449.35 C 868.30 446.17, 870.22 444.14, 873.96 440.92 C 877.69 437.70, 880.13 435.92, 884.46 433.25 C 888.80 430.58, 891.34 429.34, 895.63 427.59 C 899.92 425.84, 902.30 425.14, 905.93 424.49 C 909.56 423.84, 911.16 424.03, 913.77 424.33 C 916.39 424.64, 917.15 425.50, 919.01 426.00 C 920.86 426.50, 921.45 426.75, 923.06 426.84 C 924.67 426.93, 925.64 427.32, 927.04 426.46 C 928.45 425.60, 929.82 424.30, 930.09 422.55" style="stroke: black; fill: black;"/><path d="M 1046.51,415.49 C 1046.61 413.82, 1046.08 412.64, 1044.43 411.12 C 1042.78 409.60, 1041.37 408.39, 1038.28 407.89 C 1035.18 407.39, 1032.95 407.84, 1028.96 408.62 C 1024.98 409.40, 1022.79 410.30, 1018.35 411.80 C 1013.92 413.29, 1011.37 414.20, 1006.80 416.09 C 1002.23 417.98, 999.65 419.09, 995.51 421.24 C 991.36 423.38, 989.13 424.33, 986.08 426.82 C 983.03 429.32, 981.55 430.71, 980.27 433.71 C 978.99 436.71, 979.00 438.66, 979.69 441.82 C 980.37 444.97, 981.20 447.05, 983.70 449.47 C 986.19 451.88, 988.51 452.35, 992.17 453.88 C 995.82 455.41, 998.10 455.83, 1001.99 457.12 C 1005.88 458.41, 1008.16 459.01, 1011.62 460.34 C 1015.09 461.67, 1016.82 462.82, 1019.32 463.77 C 1021.82 464.72, 1022.92 464.91, 1024.13 465.08 C 1025.35 465.25, 1025.64 464.85, 1025.40 464.63 C 1025.17 464.41, 1024.59 463.65, 1022.97 463.97 C 1021.35 464.29, 1020.24 465.01, 1017.29 466.22 C 1014.34 467.42, 1012.26 468.65, 1008.21 470.00 C 1004.15 471.35, 1001.55 472.01, 997.01 472.97 C 992.47 473.93, 989.83 474.36, 985.52 474.79 C 981.20 475.23, 978.91 475.01, 975.44 475.14 C 971.97 475.27, 970.46 474.99, 968.16 475.45 C 965.87 475.91, 964.87 476.38, 963.97 477.43 C 963.07 478.49, 962.88 479.50, 963.66 480.71 C 964.43 481.92, 965.40 482.85, 967.83 483.50 C 970.27 484.16, 972.11 484.17, 975.84 483.98 C 979.57 483.78, 981.95 483.20, 986.47 482.54 C 991.00 481.88, 993.66 481.46, 998.45 480.69 C 1003.24 479.91, 1005.89 479.50, 1010.42 478.67 C 1014.94 477.83, 1017.41 477.73, 1021.08 476.50 C 1024.74 475.27, 1026.66 474.70, 1028.74 472.52 C 1030.82 470.34, 1031.30 468.34, 1031.47 465.61 C 1031.65 462.88, 1031.18 461.18, 1029.60 458.89 C 1028.03 456.59, 1026.57 455.62, 1023.60 454.13 C 1020.63 452.65, 1018.42 452.67, 1014.74 451.48 C 1011.05 450.30, 1008.83 449.62, 1005.18 448.21 C 1001.54 446.80, 999.44 445.92, 996.52 444.43 C 993.59 442.93, 992.44 441.75, 990.57 440.73 C 988.71 439.71, 987.75 439.95, 987.18 439.33 C 986.62 438.71, 986.85 438.78, 987.75 437.64 C 988.64 436.50, 989.35 435.52, 991.65 433.63 C 993.96 431.74, 995.67 430.24, 999.27 428.18 C 1002.88 426.13, 1005.41 424.97, 1009.68 423.35 C 1013.96 421.73, 1016.58 420.93, 1020.64 420.08 C 1024.70 419.24, 1026.80 419.02, 1029.97 419.12 C 1033.13 419.21, 1034.34 420.31, 1036.46 420.56 C 1038.59 420.81, 1039.10 420.58, 1040.59 420.36 C 1042.08 420.15, 1042.75 420.46, 1043.93 419.49 C 1045.11 418.51, 1046.41 417.16, 1046.51 415.49" style="stroke: black; fill: black;"/><path d="M 1125.36,415.69 C 1125.25 414.04, 1124.73 412.89, 1122.86 411.53 C 1120.98 410.17, 1119.32 409.07, 1115.98 408.89 C 1112.64 408.72, 1110.37 409.59, 1106.17 410.65 C 1101.96 411.71, 1099.54 412.58, 1094.96 414.20 C 1090.37 415.83, 1087.72 416.84, 1083.23 418.79 C 1078.74 420.74, 1076.32 421.78, 1072.49 423.96 C 1068.66 426.14, 1066.49 427.01, 1064.08 429.69 C 1061.68 432.36, 1060.95 434.19, 1060.46 437.34 C 1059.96 440.49, 1060.19 442.49, 1061.60 445.42 C 1063.01 448.35, 1064.52 449.88, 1067.51 451.97 C 1070.50 454.06, 1072.79 454.42, 1076.55 455.86 C 1080.31 457.31, 1082.58 457.84, 1086.32 459.22 C 1090.06 460.59, 1092.20 461.44, 1095.26 462.76 C 1098.31 464.07, 1099.65 465.12, 1101.60 465.79 C 1103.55 466.47, 1104.39 466.23, 1105.01 466.13 C 1105.63 466.03, 1105.54 465.50, 1104.70 465.30 C 1103.86 465.10, 1102.89 464.48, 1100.81 465.11 C 1098.73 465.74, 1097.49 467.09, 1094.30 468.43 C 1091.10 469.78, 1088.90 470.69, 1084.83 471.83 C 1080.76 472.97, 1078.21 473.46, 1073.93 474.14 C 1069.64 474.82, 1067.24 475.09, 1063.41 475.22 C 1059.57 475.34, 1057.64 474.73, 1054.75 474.77 C 1051.86 474.81, 1050.78 475.01, 1048.96 475.42 C 1047.13 475.84, 1046.44 475.97, 1045.62 476.84 C 1044.81 477.71, 1044.42 478.59, 1044.86 479.79 C 1045.31 480.99, 1045.90 481.85, 1047.84 482.83 C 1049.78 483.82, 1051.31 484.54, 1054.56 484.70 C 1057.81 484.86, 1059.96 484.14, 1064.08 483.64 C 1068.19 483.13, 1070.60 482.82, 1075.13 482.17 C 1079.66 481.53, 1082.24 481.16, 1086.71 480.43 C 1091.18 479.70, 1093.56 479.43, 1097.48 478.54 C 1101.40 477.64, 1103.63 477.73, 1106.30 475.96 C 1108.97 474.18, 1109.93 472.30, 1110.83 469.65 C 1111.73 466.99, 1111.63 465.22, 1110.80 462.68 C 1109.97 460.14, 1109.04 458.75, 1106.67 456.95 C 1104.30 455.14, 1102.36 454.95, 1098.95 453.65 C 1095.53 452.35, 1093.30 451.83, 1089.61 450.43 C 1085.93 449.02, 1083.75 448.19, 1080.51 446.63 C 1077.27 445.07, 1075.70 443.89, 1073.40 442.64 C 1071.11 441.39, 1070.10 441.12, 1069.03 440.38 C 1067.96 439.65, 1067.69 439.80, 1068.04 438.96 C 1068.39 438.12, 1069.05 437.79, 1070.79 436.19 C 1072.53 434.58, 1073.65 433.00, 1076.75 430.94 C 1079.85 428.89, 1082.18 427.69, 1086.31 425.92 C 1090.44 424.15, 1093.12 423.19, 1097.39 422.10 C 1101.65 421.00, 1104.06 420.55, 1107.65 420.43 C 1111.23 420.31, 1112.82 421.37, 1115.30 421.51 C 1117.78 421.65, 1118.45 421.47, 1120.07 421.12 C 1121.68 420.78, 1122.32 420.86, 1123.38 419.78 C 1124.44 418.69, 1125.46 417.34, 1125.36 415.69" style="stroke: black; fill: black;"/><path d="M 1148.08,457.97 C 1148.99 459.35, 1149.99 459.92, 1152.18 460.33 C 1154.36 460.74, 1155.87 460.81, 1158.99 460.00 C 1162.12 459.19, 1164.05 457.92, 1167.81 456.28 C 1171.56 454.64, 1173.73 453.64, 1177.78 451.80 C 1181.84 449.96, 1184.14 448.95, 1188.08 447.08 C 1192.02 445.21, 1194.10 444.33, 1197.47 442.46 C 1200.85 440.60, 1202.79 440.03, 1204.94 437.76 C 1207.10 435.48, 1207.84 433.86, 1208.26 431.10 C 1208.68 428.34, 1208.53 426.48, 1207.06 423.94 C 1205.59 421.41, 1204.16 419.48, 1200.92 418.44 C 1197.68 417.40, 1195.31 418.05, 1190.87 418.74 C 1186.43 419.43, 1183.88 420.18, 1178.72 421.87 C 1173.56 423.56, 1170.55 424.72, 1165.08 427.19 C 1159.61 429.66, 1156.52 431.21, 1151.38 434.23 C 1146.23 437.25, 1143.54 438.96, 1139.35 442.28 C 1135.15 445.59, 1133.18 447.27, 1130.41 450.80 C 1127.63 454.33, 1126.32 456.17, 1125.48 459.94 C 1124.64 463.71, 1124.73 466.17, 1126.22 469.65 C 1127.70 473.13, 1129.47 474.85, 1132.91 477.32 C 1136.34 479.79, 1138.65 480.57, 1143.39 482.00 C 1148.13 483.44, 1150.97 483.83, 1156.61 484.48 C 1162.25 485.14, 1165.41 485.29, 1171.59 485.28 C 1177.77 485.26, 1181.21 484.99, 1187.53 484.42 C 1193.84 483.85, 1197.17 483.42, 1203.14 482.45 C 1209.11 481.49, 1212.40 480.76, 1217.37 479.60 C 1222.34 478.43, 1224.76 478.01, 1227.99 476.61 C 1231.22 475.20, 1232.70 474.05, 1233.54 472.58 C 1234.39 471.11, 1233.77 469.77, 1232.21 469.27 C 1230.66 468.76, 1229.06 469.24, 1225.77 470.05 C 1222.48 470.87, 1220.47 471.97, 1215.74 473.32 C 1211.02 474.67, 1207.88 475.69, 1202.14 476.80 C 1196.40 477.90, 1193.13 478.34, 1187.04 478.86 C 1180.95 479.37, 1177.57 479.55, 1171.67 479.36 C 1165.78 479.18, 1162.74 478.85, 1157.58 477.91 C 1152.42 476.98, 1149.79 476.21, 1145.89 474.69 C 1141.99 473.17, 1140.37 472.06, 1138.06 470.31 C 1135.76 468.56, 1135.26 467.68, 1134.36 465.94 C 1133.46 464.19, 1133.21 463.75, 1133.58 461.58 C 1133.95 459.42, 1134.25 457.97, 1136.22 455.10 C 1138.18 452.24, 1139.77 450.36, 1143.42 447.24 C 1147.07 444.12, 1149.64 442.34, 1154.47 439.51 C 1159.31 436.68, 1162.35 435.18, 1167.59 433.09 C 1172.83 431.01, 1175.86 430.07, 1180.66 429.08 C 1185.46 428.09, 1188.04 428.07, 1191.59 428.16 C 1195.14 428.24, 1196.46 429.35, 1198.41 429.49 C 1200.36 429.63, 1200.77 428.99, 1201.34 428.84 C 1201.92 428.69, 1201.89 428.45, 1201.28 428.75 C 1200.67 429.06, 1200.00 429.16, 1198.30 430.35 C 1196.60 431.54, 1195.56 432.85, 1192.79 434.70 C 1190.01 436.54, 1188.09 437.76, 1184.43 439.58 C 1180.78 441.41, 1178.48 442.38, 1174.52 443.82 C 1170.56 445.25, 1168.36 445.91, 1164.64 446.76 C 1160.92 447.61, 1158.78 447.34, 1155.94 448.06 C 1153.10 448.77, 1152.12 449.27, 1150.45 450.34 C 1148.79 451.41, 1148.09 451.89, 1147.61 453.41 C 1147.14 454.94, 1147.16 456.58, 1148.08 457.97" style="stroke: black; fill: black;"/><path d="M 1264.83,436.63 C 1263.22 436.66, 1262.54 437.18, 1261.01 438.51 C 1259.48 439.85, 1258.57 440.73, 1257.16 443.32 C 1255.74 445.90, 1255.42 448.17, 1253.94 451.44 C 1252.45 454.72, 1251.52 456.73, 1249.73 459.70 C 1247.94 462.67, 1246.25 463.90, 1244.97 466.31 C 1243.69 468.73, 1243.24 470.00, 1243.33 471.78 C 1243.41 473.56, 1244.08 474.48, 1245.40 475.21 C 1246.72 475.94, 1248.23 476.22, 1249.93 475.41 C 1251.63 474.61, 1252.54 473.69, 1253.87 471.19 C 1255.21 468.69, 1254.99 466.40, 1256.62 462.91 C 1258.26 459.42, 1259.46 457.32, 1262.05 453.75 C 1264.65 450.18, 1266.37 448.25, 1269.61 445.06 C 1272.85 441.87, 1274.77 440.28, 1278.25 437.81 C 1281.74 435.34, 1283.68 434.27, 1287.02 432.70 C 1290.36 431.13, 1292.04 430.60, 1294.94 429.96 C 1297.85 429.31, 1299.13 429.51, 1301.53 429.47 C 1303.94 429.43, 1304.70 429.82, 1306.96 429.74 C 1309.21 429.66, 1311.33 430.18, 1312.80 429.07 C 1314.26 427.95, 1315.10 425.95, 1314.28 424.14 C 1313.46 422.34, 1311.35 420.98, 1308.69 420.02 C 1306.02 419.07, 1304.19 419.07, 1300.94 419.36 C 1297.69 419.65, 1295.93 420.21, 1292.42 421.47 C 1288.91 422.73, 1287.09 423.59, 1283.38 425.66 C 1279.68 427.73, 1277.67 429.00, 1273.89 431.81 C 1270.11 434.62, 1268.11 436.33, 1264.49 439.69 C 1260.87 443.05, 1259.05 445.04, 1255.79 448.60 C 1252.53 452.16, 1250.92 454.15, 1248.17 457.48 C 1245.43 460.80, 1243.45 462.30, 1242.05 465.23 C 1240.65 468.16, 1240.63 469.88, 1241.18 472.14 C 1241.74 474.39, 1243.05 475.57, 1244.80 476.50 C 1246.56 477.43, 1247.96 477.55, 1249.96 476.77 C 1251.97 476.00, 1253.08 474.98, 1254.85 472.62 C 1256.62 470.27, 1257.02 468.16, 1258.81 464.99 C 1260.60 461.82, 1261.81 459.93, 1263.80 456.76 C 1265.79 453.59, 1267.45 451.96, 1268.75 449.15 C 1270.05 446.35, 1270.24 444.90, 1270.30 442.74 C 1270.36 440.58, 1270.13 439.56, 1269.04 438.34 C 1267.94 437.12, 1266.44 436.59, 1264.83 436.63" style="stroke: black; fill: black;"/><path d="M 1350.46,427.46 C 1348.87 427.33, 1347.98 427.55, 1346.29 428.93 C 1344.60 430.31, 1343.75 431.50, 1342.02 434.36 C 1340.30 437.21, 1339.57 439.53, 1337.66 443.21 C 1335.76 446.90, 1334.57 449.11, 1332.49 452.77 C 1330.42 456.43, 1329.08 458.31, 1327.27 461.51 C 1325.46 464.71, 1324.27 466.17, 1323.46 468.75 C 1322.65 471.32, 1322.99 472.63, 1323.21 474.39 C 1323.43 476.15, 1323.73 476.78, 1324.55 477.54 C 1325.37 478.30, 1326.27 478.39, 1327.32 478.17 C 1328.36 477.96, 1328.64 477.57, 1329.77 476.48 C 1330.89 475.40, 1331.78 474.87, 1332.95 472.74 C 1334.12 470.61, 1334.14 468.93, 1335.60 465.84 C 1337.06 462.76, 1338.14 460.80, 1340.25 457.31 C 1342.36 453.81, 1343.79 451.72, 1346.15 448.37 C 1348.52 445.02, 1350.30 443.39, 1352.08 440.54 C 1353.86 437.70, 1354.62 436.34, 1355.06 434.15 C 1355.50 431.95, 1355.18 430.92, 1354.26 429.58 C 1353.34 428.24, 1352.05 427.59, 1350.46 427.46" style="stroke: black; fill: black;"/><path d="M 1373.08,384.80 C 1374.77 384.89, 1375.61 384.60, 1375.35 385.16 C 1375.10 385.72, 1372.88 387.26, 1371.82 387.60 C 1370.76 387.93, 1370.15 388.17, 1370.07 386.83 C 1369.99 385.48, 1371.72 382.26, 1371.42 380.86 C 1371.11 379.46, 1369.89 379.37, 1368.54 379.83 C 1367.18 380.29, 1364.96 382.18, 1364.63 383.16 C 1364.30 384.13, 1365.20 384.37, 1366.89 384.70 C 1368.58 385.03, 1371.39 384.71, 1373.08 384.80" style="stroke: black; fill: black;"/><path d="M 1394.27,457.09 C 1395.44 458.37, 1396.67 458.95, 1399.12 458.98 C 1401.57 459.02, 1403.14 458.42, 1406.51 457.25 C 1409.89 456.09, 1412.12 454.95, 1415.99 453.16 C 1419.87 451.37, 1422.05 450.20, 1425.89 448.30 C 1429.73 446.40, 1431.79 445.46, 1435.21 443.66 C 1438.62 441.86, 1440.64 441.46, 1442.95 439.31 C 1445.26 437.15, 1446.15 435.58, 1446.74 432.88 C 1447.34 430.17, 1447.26 428.30, 1445.93 425.79 C 1444.61 423.29, 1443.23 421.39, 1440.12 420.37 C 1437.00 419.34, 1434.76 419.91, 1430.37 420.65 C 1425.98 421.38, 1423.40 422.22, 1418.19 424.05 C 1412.97 425.87, 1409.86 427.12, 1404.30 429.77 C 1398.75 432.42, 1395.60 434.10, 1390.42 437.29 C 1385.24 440.47, 1382.53 442.24, 1378.41 445.70 C 1374.29 449.16, 1372.28 450.86, 1369.82 454.60 C 1367.35 458.34, 1366.22 460.51, 1366.09 464.40 C 1365.96 468.28, 1366.78 470.76, 1369.16 474.02 C 1371.53 477.29, 1373.67 478.55, 1377.97 480.71 C 1382.27 482.86, 1384.98 483.54, 1390.64 484.81 C 1396.30 486.07, 1399.65 486.42, 1406.27 487.04 C 1412.90 487.66, 1416.70 487.71, 1423.76 487.91 C 1430.83 488.10, 1434.73 488.02, 1441.60 488.01 C 1448.48 487.99, 1452.38 487.89, 1458.14 487.83 C 1463.90 487.77, 1466.50 488.05, 1470.40 487.71 C 1474.31 487.37, 1476.25 487.15, 1477.67 486.13 C 1479.09 485.11, 1479.00 483.50, 1477.51 482.61 C 1476.02 481.72, 1474.12 481.77, 1470.22 481.67 C 1466.31 481.57, 1463.73 481.87, 1457.99 482.11 C 1452.26 482.35, 1448.36 482.74, 1441.55 482.87 C 1434.74 483.01, 1430.87 483.07, 1423.94 482.78 C 1417.01 482.50, 1413.25 482.31, 1406.91 481.44 C 1400.58 480.57, 1397.35 479.94, 1392.28 478.44 C 1387.22 476.94, 1384.87 475.82, 1381.57 473.94 C 1378.27 472.05, 1377.27 470.90, 1375.78 469.03 C 1374.28 467.16, 1374.08 466.72, 1374.10 464.60 C 1374.12 462.48, 1374.17 461.25, 1375.86 458.43 C 1377.56 455.61, 1379.04 453.70, 1382.58 450.50 C 1386.13 447.30, 1388.72 445.43, 1393.58 442.44 C 1398.45 439.45, 1401.57 437.81, 1406.90 435.56 C 1412.24 433.31, 1415.37 432.27, 1420.25 431.19 C 1425.12 430.10, 1427.73 430.15, 1431.27 430.14 C 1434.81 430.12, 1436.08 431.15, 1437.95 431.12 C 1439.81 431.10, 1440.17 430.31, 1440.58 430.01 C 1440.99 429.71, 1440.82 429.37, 1440.00 429.61 C 1439.17 429.86, 1438.32 430.02, 1436.44 431.24 C 1434.57 432.46, 1433.49 433.88, 1430.62 435.70 C 1427.75 437.53, 1425.71 438.67, 1422.07 440.36 C 1418.44 442.06, 1416.26 442.94, 1412.45 444.18 C 1408.65 445.42, 1406.27 445.60, 1403.07 446.55 C 1399.86 447.50, 1398.40 447.74, 1396.44 448.95 C 1394.49 450.15, 1393.72 450.96, 1393.29 452.59 C 1392.86 454.22, 1393.11 455.81, 1394.27 457.09" style="stroke: black; fill: black;"/></svg>