<svg xmlns="http://www.w3.org/2000/svg" width="19.039" height="26.446" viewBox="0 0 19.039 26.446">
  <path id="Path_973" data-name="Path 973" d="M55.534,36.423c.323-.467.611-.934.9-1.329.288.395.575.862.9,1.329,2.694,4.024,6.754,9.987,6.754,13a7.748,7.748,0,0,1-2.227,5.424,7.6,7.6,0,0,1-5.425,2.227,7.751,7.751,0,0,1-5.425-2.227,7.6,7.6,0,0,1-2.227-5.424C48.78,46.41,52.84,40.411,55.534,36.423Zm.9,22.524a9.566,9.566,0,0,0,9.52-9.519c0-3.593-4.239-9.843-7.077-14.011-.61-.9-1.15-1.724-1.652-2.479a1.1,1.1,0,0,0-.288-.288.936.936,0,0,0-1.293.288c-.467.754-1.006,1.545-1.652,2.479-2.838,4.167-7.077,10.454-7.077,14.046a9.475,9.475,0,0,0,2.8,6.717A9.6,9.6,0,0,0,56.432,58.947Z" transform="translate(-46.913 -32.502)" fill="#ffcd13"/>
</svg>
