<svg id="Component_35_1" data-name="Component 35 – 1" xmlns="http://www.w3.org/2000/svg" width="19.451" height="18.518" viewBox="0 0 19.451 18.518">
  <path id="Path_962" data-name="Path 962" d="M39.323,36.824c-3.766,0-4.388,4.733-4.388,6.944,0,3.593,1.209,6.391,4.284,6.391,2.384,0,4.077-2,5.286-5.666-.38-4.457-2.28-7.67-5.182-7.67Zm6.737,4.25h.1a20.593,20.593,0,0,0,.9-5.632V34.82a3.136,3.136,0,0,1,1.485-.38c1,0,1.659.311,1.659,1.555,0,2.867-1.831,7.186-3.109,9.432.76,3.835,1.14,4.56,2.176,4.733l2.073.311v1.693a10.214,10.214,0,0,1-2.522.484c-2.384,0-3.248-1.348-3.662-4.25h-.069c-1.52,2.764-3.42,4.354-6.046,4.354-4.7,0-7.152-3.386-7.152-9.052,0-2.384.656-9.466,7.428-9.466,3.282,0,5.839,1.969,6.737,6.841Z" transform="translate(-31.895 -34.233)" fill="#a58c7d"/>
</svg>
