<?xml version="1.0" encoding="utf-8"?>
<!-- Generator: Adobe Illustrator 25.2.0, SVG Export Plug-In . SVG Version: 6.00 Build 0)  -->
<svg version="1.1" id="Layer_1" xmlns="http://www.w3.org/2000/svg" xmlns:xlink="http://www.w3.org/1999/xlink" x="0px" y="0px"
	 width="40px" height="51.3px" viewBox="0 0 40 51.3" style="enable-background:new 0 0 40 51.3;" xml:space="preserve">
<style type="text/css">
	.st0{fill:#F9B535;}
	.st1{fill:none;stroke:#9D9D9C;stroke-width:2.695;stroke-miterlimit:10;}
</style>
<g>
	<polygon class="st0" points="34.9,15.5 29.3,5.8 18,5.8 12.5,15.4 5.1,19.7 5.1,30.9 12.5,35.2 18,44.8 29.3,44.8 34.9,35 
		29.3,25.3 	"/>
	<polygon class="st1" points="34.9,15.5 29.3,5.8 18,5.8 12.5,15.4 5.1,19.7 5.1,30.9 12.5,35.2 18,44.8 29.3,44.8 34.9,35 
		29.3,25.3 	"/>
	<line class="st1" x1="20.4" y1="45.5" x2="16.2" y2="38.2"/>
	<line class="st1" x1="16.2" y1="15.6" x2="20.4" y2="8.3"/>
	<line class="st1" x1="30.1" y1="24.3" x2="34.3" y2="16.9"/>
</g>
</svg>
