<svg xmlns="http://www.w3.org/2000/svg" width="14.84" height="26.5" viewBox="0 0 14.84 26.5">
  <path id="Path_963" data-name="Path 963" d="M53.539,47.329a6.573,6.573,0,0,0,4.7,1.71c3.3,0,4.489-2.2,4.489-4.55,0-3.054-2.046-4.886-6.81-4.886v-2.26c2.962,0,5.314-.855,5.314-4.275a3.261,3.261,0,0,0-3.6-3.512c-3.6,0-4.092,3.542-4.092,5.5Zm.091,2.5h-.061l.183,4.116h-2.9v-18.5c0-5.527,2.565-8,6.993-8,3.817,0,6.077,2.138,6.077,5.405a5.628,5.628,0,0,1-3.39,5.313v.061a6.114,6.114,0,0,1,5.161,6.2c0,3.206-1.985,6.779-7.207,6.779a8.352,8.352,0,0,1-4.855-1.374Z" transform="translate(-50.852 -27.45)" fill="#f39415"/>
</svg>
